<?xml version="1.0" encoding="UTF-8"?>
<!--Generator: Apple Native CoreSVG 326-->
<!DOCTYPE svg
PUBLIC "-//W3C//DTD SVG 1.1//EN"
       "http://www.w3.org/Graphics/SVG/1.1/DTD/svg11.dtd">
<svg version="1.1" xmlns="http://www.w3.org/2000/svg" xmlns:xlink="http://www.w3.org/1999/xlink" viewBox="0 0 389.404 282.959">
 <g>
  <rect height="282.959" opacity="0" width="389.404" x="0" y="0"/>
  <path d="M111.328 275.635L371.582 275.635C381.348 275.635 389.404 267.822 389.404 258.057C389.404 248.047 381.348 240.479 371.582 240.479L111.328 240.479C101.562 240.479 93.75 248.047 93.75 258.057C93.75 267.822 101.562 275.635 111.328 275.635Z" fill="black" fill-opacity="0.85"/>
  <path d="M24.9023 282.959C38.5742 282.959 49.8047 271.729 49.8047 258.057C49.8047 244.141 38.5742 233.154 24.9023 233.154C11.2305 233.154 0 244.141 0 258.057C0 271.729 11.2305 282.959 24.9023 282.959Z" fill="black" fill-opacity="0.85"/>
  <path d="M111.328 159.18L371.582 159.18C381.348 159.18 389.404 151.367 389.404 141.602C389.404 131.836 381.348 124.023 371.582 124.023L111.328 124.023C101.562 124.023 93.75 131.836 93.75 141.602C93.75 151.367 101.562 159.18 111.328 159.18Z" fill="black" fill-opacity="0.85"/>
  <path d="M24.9023 166.504C38.5742 166.504 49.8047 155.273 49.8047 141.602C49.8047 127.93 38.5742 116.699 24.9023 116.699C11.2305 116.699 0 127.93 0 141.602C0 155.273 11.2305 166.504 24.9023 166.504Z" fill="black" fill-opacity="0.85"/>
  <path d="M111.328 42.7246L371.582 42.7246C381.348 42.7246 389.404 34.9121 389.404 25.1465C389.404 15.3809 381.348 7.56836 371.582 7.56836L111.328 7.56836C101.562 7.56836 93.75 15.3809 93.75 25.1465C93.75 34.9121 101.562 42.7246 111.328 42.7246Z" fill="black" fill-opacity="0.85"/>
  <path d="M24.9023 50.0488C38.5742 50.0488 49.8047 38.8184 49.8047 25.1465C49.8047 11.4746 38.5742 0.244141 24.9023 0.244141C11.2305 0.244141 0 11.4746 0 25.1465C0 38.8184 11.2305 50.0488 24.9023 50.0488Z" fill="black" fill-opacity="0.85"/>
 </g>
</svg>
