<?xml version="1.0" encoding="UTF-8"?>
<!--Generator: Apple Native CoreSVG 326-->
<!DOCTYPE svg
PUBLIC "-//W3C//DTD SVG 1.1//EN"
       "http://www.w3.org/Graphics/SVG/1.1/DTD/svg11.dtd">
<svg version="1.1" xmlns="http://www.w3.org/2000/svg" xmlns:xlink="http://www.w3.org/1999/xlink" viewBox="0 0 376.953 380.615">
 <g>
  <rect height="380.615" opacity="0" width="376.953" x="0" y="0"/>
  <path d="M0 155.273C0 240.967 69.5801 310.303 155.273 310.303C188.232 310.303 218.506 300.049 243.652 282.471L334.473 373.535C339.6 378.418 345.947 380.615 352.539 380.615C366.699 380.615 376.953 369.873 376.953 355.713C376.953 348.877 374.268 342.773 370.117 338.135L279.785 247.559C299.072 221.68 310.303 189.941 310.303 155.273C310.303 69.5801 240.967 0 155.273 0C69.5801 0 0 69.5801 0 155.273ZM37.5977 155.273C37.5977 90.0879 90.0879 37.5977 155.273 37.5977C220.215 37.5977 272.949 90.0879 272.949 155.273C272.949 220.215 220.215 272.949 155.273 272.949C90.0879 272.949 37.5977 220.215 37.5977 155.273Z" fill="black" fill-opacity="0.85"/>
 </g>
</svg>
