<?xml version="1.0" encoding="UTF-8"?>
<!--Generator: Apple Native CoreSVG 326-->
<!DOCTYPE svg
PUBLIC "-//W3C//DTD SVG 1.1//EN"
       "http://www.w3.org/Graphics/SVG/1.1/DTD/svg11.dtd">
<svg version="1.1" xmlns="http://www.w3.org/2000/svg" xmlns:xlink="http://www.w3.org/1999/xlink" viewBox="0 0 412.851 460.696">
 <g>
  <rect height="460.696" opacity="0" width="412.851" x="0" y="0"/>
  <path d="M25.151 435.792C57.8658 468.751 96.6842 468.996 128.911 436.525C150.883 414.796 175.297 362.062 192.387 341.31L230.962 380.128C247.319 396.73 266.606 396.73 282.231 380.861L307.866 354.982C323.735 339.113 323.735 320.558 307.133 303.956L156.743 153.566C140.385 136.964 121.342 136.72 105.473 152.833L79.8385 178.468C64.2135 194.093 63.9693 213.136 80.5709 229.738L119.145 268.312C98.6373 285.402 45.9029 309.816 24.1744 331.788C-8.2963 364.259-8.05216 402.833 25.151 435.792ZM110.6 197.511L125.004 183.595C130.131 178.468 135.258 178.468 140.385 183.351L277.348 320.314C282.231 325.197 282.231 330.568 277.104 335.695L263.188 349.855C258.061 355.226 252.446 355.226 247.319 350.099L202.641 304.933C195.073 297.121 185.063 298.341 176.274 306.642C162.358 320.314 136.967 381.593 105.473 412.843C87.651 430.665 66.4107 430.665 48.1002 412.599C30.0338 394.288 30.0338 372.804 47.6119 355.226C79.106 323.976 140.629 298.341 154.057 284.425C162.358 275.636 163.579 265.382 156.01 258.058L110.6 213.136C105.717 208.009 105.717 202.638 110.6 197.511ZM76.9088 408.693C90.0924 408.693 101.079 397.706 101.079 384.279C101.079 371.095 90.0924 360.109 76.9088 360.109C63.481 360.109 52.4947 371.095 52.4947 384.279C52.4947 397.706 63.481 408.693 76.9088 408.693ZM304.448 326.173L396.489 234.132C418.706 211.915 418.217 186.037 395.512 163.087L244.389 11.7201C223.393-9.27598 186.284-0.731055 178.96 31.7396C160.405 112.062 161.137 117.433 130.376 160.402L155.522 185.304C190.922 139.894 192.387 118.41 211.43 50.0502C213.628 42.2377 219.975 39.5521 226.079 45.4115L368.657 187.746C376.713 195.802 376.713 205.079 369.389 212.404L280.034 301.759ZM271.977 217.042C281.987 227.052 337.895 196.046 357.182 171.876L315.19 129.884C311.528 163.82 293.95 188.234 272.465 209.718C270.024 212.16 270.268 215.333 271.977 217.042Z" fill="black" fill-opacity="0.85"/>
 </g>
</svg>
