<?xml version="1.0" encoding="UTF-8"?>
<!--Generator: Apple Native CoreSVG 326-->
<!DOCTYPE svg
PUBLIC "-//W3C//DTD SVG 1.1//EN"
       "http://www.w3.org/Graphics/SVG/1.1/DTD/svg11.dtd">
<svg version="1.1" xmlns="http://www.w3.org/2000/svg" xmlns:xlink="http://www.w3.org/1999/xlink" viewBox="0 0 547.607 354.736">
 <g>
  <rect height="354.736" opacity="0" width="547.607" x="0" y="0"/>
  <path d="M48.0957 169.678L220.215 169.678C252.197 169.678 268.311 154.053 268.311 122.314L268.311 47.3633C268.311 15.625 252.197 0 220.215 0L48.0957 0C15.8691 0 0 15.625 0 47.3633L0 122.314C0 154.053 15.8691 169.678 48.0957 169.678ZM50.5371 136.963C39.3066 136.963 32.959 130.615 32.959 118.652L32.959 51.0254C32.959 38.8184 39.3066 32.959 50.5371 32.959L217.285 32.959C228.76 32.959 235.352 38.8184 235.352 51.0254L235.352 118.652C235.352 130.615 228.76 136.963 217.285 136.963ZM96.9238 353.271L243.652 353.271C275.635 353.271 291.748 337.646 291.748 305.908L291.748 256.592C291.748 224.854 275.635 209.229 243.652 209.229L96.9238 209.229C64.6973 209.229 48.8281 224.854 48.8281 256.592L48.8281 305.908C48.8281 337.646 64.6973 353.271 96.9238 353.271ZM99.3652 320.557C88.1348 320.557 81.7871 314.209 81.7871 302.246L81.7871 260.254C81.7871 248.047 88.1348 241.943 99.3652 241.943L240.967 241.943C252.197 241.943 258.789 248.047 258.789 260.254L258.789 302.246C258.789 314.209 252.197 320.557 240.967 320.557ZM378.418 330.322L499.512 330.322C531.738 330.322 547.607 314.697 547.607 282.959L547.607 73.9746C547.607 42.2363 531.738 26.6113 499.512 26.6113L378.418 26.6113C346.436 26.6113 330.566 42.2363 330.566 73.9746L330.566 282.959C330.566 314.697 346.436 330.322 378.418 330.322ZM381.104 297.607C369.873 297.607 363.281 291.26 363.281 279.297L363.281 77.6367C363.281 65.4297 369.873 59.5703 381.104 59.5703L496.826 59.5703C508.301 59.5703 514.648 65.4297 514.648 77.6367L514.648 279.297C514.648 291.26 508.301 297.607 496.826 297.607Z" fill="black" fill-opacity="0.85"/>
 </g>
</svg>
