<?xml version="1.0" encoding="UTF-8"?>
<!--Generator: Apple Native CoreSVG 326-->
<!DOCTYPE svg
PUBLIC "-//W3C//DTD SVG 1.1//EN"
       "http://www.w3.org/Graphics/SVG/1.1/DTD/svg11.dtd">
<svg version="1.1" xmlns="http://www.w3.org/2000/svg" xmlns:xlink="http://www.w3.org/1999/xlink" viewBox="0 0 306.947 307.007">
 <g>
  <rect height="307.007" opacity="0" width="306.947" x="0" y="0"/>
  <path d="M5.76819 301.331C13.5807 308.899 26.276 308.899 33.8444 301.331L153.473 181.458L273.346 301.331C280.671 308.899 293.61 308.899 301.178 301.331C308.747 293.518 308.747 280.823 301.178 273.499L181.305 153.625L301.178 33.9966C308.747 26.4282 308.991 13.4888 301.178 5.92041C293.366-1.40381 280.671-1.40381 273.346 5.92041L153.473 125.793L33.8444 5.92041C26.276-1.40381 13.3365-1.64795 5.76819 5.92041C-1.55603 13.7329-1.55603 26.4282 5.76819 33.9966L125.641 153.625L5.76819 273.499C-1.55603 280.823-1.80017 293.762 5.76819 301.331Z" fill="black" fill-opacity="0.85"/>
 </g>
</svg>
