<?xml version="1.0" encoding="UTF-8"?>
<!--Generator: Apple Native CoreSVG 326-->
<!DOCTYPE svg
PUBLIC "-//W3C//DTD SVG 1.1//EN"
       "http://www.w3.org/Graphics/SVG/1.1/DTD/svg11.dtd">
<svg version="1.1" xmlns="http://www.w3.org/2000/svg" xmlns:xlink="http://www.w3.org/1999/xlink" viewBox="0 0 269.531 392.334">
 <g>
  <rect height="392.334" opacity="0" width="269.531" x="0" y="0"/>
  <path d="M134.766 391.602C215.576 391.602 269.531 338.867 269.531 260.01C269.531 219.971 253.906 181.396 244.141 158.936C223.633 112.061 190.674 60.3027 162.598 17.334C155.273 6.34766 146.729 0 134.766 0C122.559 0 114.258 6.34766 107.178 17.334C79.1016 60.3027 45.8984 112.061 25.3906 158.936C15.625 181.396 0 219.971 0 260.01C0 338.867 53.9551 391.602 134.766 391.602ZM134.766 355.957C75.1953 355.957 35.6445 317.627 35.6445 260.01C35.6445 227.783 47.8516 198.242 57.1289 176.025C79.1016 124.268 107.422 83.7402 134.033 43.9453C134.521 42.9688 135.254 42.9688 135.742 43.9453C162.109 83.7402 190.918 124.268 212.158 176.025C221.436 198.242 233.887 227.783 233.887 260.01C233.887 317.627 194.336 355.957 134.766 355.957Z" fill="#007aff"/>
 </g>
</svg>
