<?xml version="1.0" encoding="UTF-8"?>
<!--Generator: Apple Native CoreSVG 326-->
<!DOCTYPE svg
PUBLIC "-//W3C//DTD SVG 1.1//EN"
       "http://www.w3.org/Graphics/SVG/1.1/DTD/svg11.dtd">
<svg version="1.1" xmlns="http://www.w3.org/2000/svg" xmlns:xlink="http://www.w3.org/1999/xlink" viewBox="0 0 460.456 466.309">
 <g>
  <rect height="466.309" opacity="0" width="460.456" x="0" y="0"/>
  <path d="M367.679 335.083L384.281 337.524C391.361 338.501 397.953 342.896 402.347 349.487L442.142 409.302C446.049 415.649 446.781 422.241 442.386 426.636L406.009 463.013C401.615 467.407 395.267 467.407 388.92 463.013L328.617 422.974C322.513 418.823 317.631 412.231 316.654 404.907L314.213 388.306L232.819 306.912C238.465 299.454 244.748 291.538 251.901 283.041L344.242 375.61L348.392 396.606L394.291 431.519L410.648 414.917L375.98 368.774L354.74 365.112L261.41 271.783C267.551 264.576 274.344 256.942 281.748 248.925ZM131.351 42.3584L239.524 150.925C241.127 156.429 243.159 161.843 245.609 167.114C239.983 172.619 234.511 177.866 229.355 182.598L108.402 61.6455C94.7302 47.9736 80.8142 47.4854 67.6306 60.9131L40.2868 88.501C27.1032 101.929 27.1032 115.356 41.0192 129.272L156.13 244.383C147.168 251.083 138.938 256.779 131.307 261.752L21.488 151.733C-6.83232 123.169-7.07646 93.8721 20.2673 66.5283L45.6579 41.1377C73.4899 13.5498 102.787 13.7939 131.351 42.3584ZM73.4899 107.056L144.047 177.368C146.976 180.542 146.732 185.181 144.047 188.11C141.117 191.04 136.234 191.04 133.304 188.11L62.7478 118.042C59.5739 115.112 59.8181 110.474 62.7478 107.056C65.6774 104.126 70.8044 104.37 73.4899 107.056ZM97.1716 83.8623L167.484 153.931C170.414 156.86 170.414 161.499 167.24 164.917C164.554 167.603 159.427 168.091 156.498 164.917L86.4294 94.3604C83.7438 91.4307 83.4997 86.792 86.4294 83.8623C89.1149 80.9326 93.9978 80.6885 97.1716 83.8623Z" fill="black" fill-opacity="0.85"/>
  <path d="M31.4978 439.575C65.6774 473.511 111.576 473.999 144.779 440.063C186.039 398.315 183.109 349.487 303.959 225.464C345.707 244.995 396 238.403 429.203 204.956C464.847 169.8 470.463 113.403 443.119 67.749L389.652 121.46C385.258 125.854 378.91 126.343 373.783 121.46L350.345 97.5342C345.218 92.1631 344.73 86.0596 349.125 81.665L402.836 28.1982C357.67 0.854492 301.761 6.46973 266.361 42.1143C232.914 75.3174 226.322 125.61 245.609 167.114C121.83 288.208 72.7575 285.034 31.0095 326.05C-2.92607 359.741-2.43779 405.396 31.4978 439.575ZM289.799 181.274C255.863 147.339 254.154 93.8721 286.381 62.1338C303.715 44.7998 328.373 37.2314 352.299 40.1611L325.931 66.7725C311.527 80.9326 312.259 99.7314 327.152 114.624L356.937 143.921C371.342 158.569 390.384 158.813 404.056 145.386L430.912 118.042C434.33 142.7 426.761 167.358 408.939 184.937C377.201 216.919 323.978 214.966 289.799 181.274ZM52.9821 418.091C31.7419 396.606 31.986 368.774 52.4938 348.267C101.078 300.171 127.201 319.702 259.769 190.308C262.943 194.214 266.117 197.876 269.535 201.294C272.953 204.956 276.859 208.374 280.765 211.304C151.615 344.116 171.146 370.239 122.806 418.579C102.299 439.087 74.4665 439.331 52.9821 418.091ZM87.406 408.325C100.834 408.325 111.82 397.583 111.82 384.155C111.82 370.728 100.834 359.985 87.406 359.985C74.2224 359.985 63.236 370.728 63.236 384.155C63.236 397.583 74.2224 408.325 87.406 408.325Z" fill="black" fill-opacity="0.85"/>
 </g>
</svg>
