<?xml version="1.0" encoding="UTF-8"?>
<!--Generator: Apple Native CoreSVG 326-->
<!DOCTYPE svg
PUBLIC "-//W3C//DTD SVG 1.1//EN"
       "http://www.w3.org/Graphics/SVG/1.1/DTD/svg11.dtd">
<svg version="1.1" xmlns="http://www.w3.org/2000/svg" xmlns:xlink="http://www.w3.org/1999/xlink" viewBox="0 0 322.266 452.393">
 <g>
  <rect height="452.393" opacity="0" width="322.266" x="0" y="0"/>
  <path d="M151.611 417.48C253.906 417.48 322.266 348.389 322.266 244.385C322.266 71.7773 175.049 0 74.4629 0C54.9316 0 42.2363 7.08008 42.2363 20.5078C42.2363 25.6348 44.6777 31.25 48.8281 36.1328C71.2891 62.9883 93.9941 94.4824 94.4824 133.057C94.4824 141.113 94.2383 147.949 88.3789 158.447L98.6328 156.738C90.0879 127.93 68.1152 107.178 46.6309 107.178C37.5977 107.178 31.4941 113.77 31.4941 123.535C31.4941 128.418 32.959 140.137 32.959 148.438C32.959 189.209 0 215.576 0 285.4C0 364.746 60.5469 417.48 151.611 417.48ZM154.053 386.963C79.834 386.963 30.5176 346.191 30.5176 285.4C30.5176 223.145 64.9414 199.707 64.9414 152.588C64.9414 144.775 62.9883 138.672 61.2793 133.789L56.6406 142.09C72.7539 153.076 81.2988 170.654 86.6699 197.51C87.6465 202.148 90.0879 204.102 93.2617 204.102C110.596 204.102 121.338 161.621 121.338 137.207C121.338 91.5527 102.051 46.875 72.0215 21.4844L65.918 28.3203C205.322 32.7148 290.527 124.023 290.527 243.164C290.527 329.346 235.84 386.963 154.053 386.963ZM156.494 363.77C203.125 363.77 225.83 329.59 225.83 290.771C225.83 252.441 203.857 209.717 160.645 189.697C158.936 188.965 157.715 189.941 157.959 191.895C160.889 223.389 156.006 253.662 145.508 267.822C140.869 256.348 135.254 246.582 126.221 238.525C124.756 237.305 123.779 237.793 123.535 239.746C120.361 261.963 95.7031 274.17 95.7031 308.594C95.7031 341.553 120.117 363.77 156.494 363.77Z" fill="#ff9500"/>
 </g>
</svg>
