<?xml version="1.0" encoding="UTF-8"?>
<!--Generator: Apple Native CoreSVG 326-->
<!DOCTYPE svg
PUBLIC "-//W3C//DTD SVG 1.1//EN"
       "http://www.w3.org/Graphics/SVG/1.1/DTD/svg11.dtd">
<svg version="1.1" xmlns="http://www.w3.org/2000/svg" xmlns:xlink="http://www.w3.org/1999/xlink" viewBox="0 0 394.287 394.287">
 <g>
  <rect height="394.287" opacity="0" width="394.287" x="0" y="0"/>
  <path d="M203.125 345.215C239.99 345.215 270.996 289.062 278.809 276.123C289.062 259.521 284.424 242.92 284.424 233.643C284.424 228.516 304.688 212.646 304.688 195.557C304.688 178.223 265.381 162.109 265.381 156.25C265.381 152.1 268.799 147.217 271.973 147.217C279.053 147.217 300.049 173.828 312.744 173.828C320.557 173.828 323.486 167.236 325.684 167.236C331.055 167.236 334.229 224.854 361.572 235.84L370.605 216.553C345.947 211.67 355.469 144.043 327.881 144.043C319.336 144.043 313.477 151.611 311.035 151.611C309.326 151.611 304.688 147.949 293.213 138.428C287.842 134.033 281.738 127.93 270.996 127.93C257.812 127.93 245.117 142.822 245.117 156.494C245.117 177.002 283.203 189.697 283.203 195.557C283.203 199.463 281.494 202.881 274.658 210.693C266.846 219.482 262.939 225.586 262.939 233.643C262.939 236.816 263.184 239.99 263.428 242.92C264.404 255.127 263.916 259.766 260.742 265.381C252.197 278.564 227.051 323.73 203.125 323.73C182.617 323.73 184.57 293.945 184.57 265.137C184.57 236.572 161.621 215.088 131.836 215.088C109.375 215.088 99.1211 204.59 99.1211 183.594C99.1211 153.809 130.859 135.986 159.424 135.986C179.688 135.986 195.801 145.508 210.938 145.508C224.121 145.508 233.643 125 233.643 111.328C233.643 93.0176 194.58 72.7539 183.105 72.7539C173.34 72.7539 169.189 78.8574 169.434 91.0645L173.34 90.8203L167.236 85.9375C158.936 79.5898 153.076 76.1719 145.264 76.1719C127.197 76.1719 126.465 101.074 116.943 101.074C114.99 101.074 113.525 99.6094 113.525 97.168C113.525 89.5996 133.789 72.0215 134.033 49.5605L134.277 33.2031L114.258 33.2031L114.258 51.7578C114.258 73.2422 93.9941 80.5664 93.9941 99.3652C93.9941 110.84 102.051 118.408 114.502 118.408C138.184 118.408 139.16 93.9941 146.973 93.9941C153.32 94.2383 162.109 107.422 177.979 107.422C187.012 107.422 191.895 100.586 190.186 89.8438L184.814 91.7969C197.021 96.1914 213.623 104.736 213.623 112.793C213.623 117.188 211.914 124.023 208.496 124.023C200.439 124.023 178.955 114.746 159.424 114.746C119.385 114.746 77.6367 142.09 77.6367 183.594C77.6367 216.309 97.4121 236.572 131.836 236.572C149.902 236.572 163.086 248.291 163.086 265.137C163.086 293.457 159.668 345.215 203.125 345.215ZM255.859 80.3223C260.254 80.3223 264.16 84.4727 271.484 84.4727C276.123 84.4727 279.297 80.3223 279.297 74.9512C279.297 65.6738 268.555 58.3496 254.395 58.3496C237.793 58.3496 228.271 63.7207 228.271 73.2422C228.271 79.5898 232.91 83.9844 239.258 83.9844C245.85 83.9844 248.779 80.3223 255.859 80.3223ZM197.021 394.043C305.908 394.043 394.287 305.908 394.287 197.021C394.287 88.1348 305.908 0 197.021 0C88.3789 0 0 88.1348 0 197.021C0 305.908 88.3789 394.043 197.021 394.043ZM197.021 364.746C104.492 364.746 29.541 289.551 29.541 197.021C29.541 104.492 104.492 29.2969 197.021 29.2969C289.551 29.2969 364.746 104.492 364.746 197.021C364.746 289.551 289.551 364.746 197.021 364.746Z" fill="#28cd41"/>
 </g>
</svg>
