<?xml version="1.0" encoding="UTF-8"?>
<!--Generator: Apple Native CoreSVG 326-->
<!DOCTYPE svg
PUBLIC "-//W3C//DTD SVG 1.1//EN"
       "http://www.w3.org/Graphics/SVG/1.1/DTD/svg11.dtd">
<svg version="1.1" xmlns="http://www.w3.org/2000/svg" xmlns:xlink="http://www.w3.org/1999/xlink" viewBox="0 0 404.297 344.971">
 <g>
  <rect height="344.971" opacity="0" width="404.297" x="0" y="0"/>
  <path d="M30.0293 117.92C57.8613 109.619 86.4258 105.713 113.037 105.713C146.973 105.713 172.852 110.84 204.834 110.84C240.723 110.84 262.451 86.4258 262.451 55.4199C262.451 22.9492 237.793 0.244141 207.52 0.244141C186.035 0.244141 166.748 13.1836 157.715 30.7617C154.053 37.8418 155.029 46.3867 162.598 50.5371C169.434 54.1992 178.223 52.2461 183.105 43.457C187.256 35.1562 197.021 28.5645 207.52 28.5645C222.168 28.5645 234.375 38.5742 234.375 55.4199C234.375 72.0215 222.9 82.5195 204.834 82.5195C174.805 82.5195 147.949 77.3926 113.037 77.3926C81.543 77.3926 50.293 82.5195 21.4844 90.8203C12.4512 93.5059 8.78906 101.318 10.9863 108.887C13.1836 116.211 20.2637 120.85 30.0293 117.92ZM327.148 209.229C372.07 209.229 404.297 180.176 404.297 139.893C404.297 99.3652 373.535 70.8008 335.205 70.8008C300.293 70.8008 274.414 94.4824 269.531 126.465C268.066 135.498 272.949 142.578 280.762 143.799C288.818 145.02 295.898 140.137 297.852 129.639C301.025 110.84 316.895 98.877 335.205 98.877C357.91 98.877 376.221 115.234 376.221 139.893C376.221 164.307 356.689 181.152 327.148 181.152C269.287 181.152 206.787 147.949 130.371 147.949C91.5527 147.949 55.4199 153.809 21.4844 165.527C12.6953 168.457 8.78906 176.025 10.9863 183.594C13.1836 191.162 20.5078 195.801 30.0293 192.383C61.2793 181.396 93.5059 176.025 130.371 176.025C206.787 176.025 262.451 209.229 327.148 209.229ZM205.078 344.971C235.352 344.971 259.033 322.754 259.033 290.283C259.033 244.141 212.646 218.506 125.977 218.506C91.5527 218.506 53.7109 224.609 21.4844 235.84C12.6953 238.77 8.78906 246.338 10.9863 253.906C13.1836 261.475 20.5078 266.113 30.0293 262.695C60.0586 252.441 92.5293 246.582 125.977 246.582C194.824 246.582 230.957 263.672 230.957 290.283C230.957 307.129 219.238 316.895 205.078 316.895C190.674 316.895 182.617 306.885 179.932 291.748C178.467 283.691 172.852 277.1 163.574 277.832C153.564 278.564 149.902 286.865 151.123 295.41C154.541 322.51 174.561 344.971 205.078 344.971Z" fill="#55bef0"/>
 </g>
</svg>
